<?xml version="1.0" encoding="utf-8"?>
<!-- Generator: Adobe Illustrator 24.2.0, SVG Export Plug-In . SVG Version: 6.00 Build 0)  -->
<svg version="1.1" id="Layer_1" xmlns="http://www.w3.org/2000/svg" xmlns:xlink="http://www.w3.org/1999/xlink" x="0px" y="0px"
	 viewBox="0 0 841.89 595.28" style="enable-background:new 0 0 841.89 595.28;" xml:space="preserve">
<style type="text/css">
	.st0{fill:#C83D2A;}
</style>
<g>
	<path class="st0" d="M489.71,271.38c-1.02,3-3.14,5.42-5.98,6.82c-5.86,2.89-12.98,0.47-15.87-5.38c-1.4-2.84-1.61-6.05-0.6-9.05
		c1.02-3,3.14-5.42,5.98-6.82c1.66-0.82,3.44-1.23,5.23-1.23c1.28,0,2.57,0.21,3.82,0.64c3,1.02,5.42,3.14,6.82,5.98
		C490.52,265.17,490.73,268.39,489.71,271.38 M602.36,239.47v-8.23L421.75,116.07l-182.22,116.2v246.18h360.96v-6.98l0,0l0,0
		L490.92,281.7c2.45-2.15,4.32-4.9,5.4-8.07c1.62-4.76,1.28-9.87-0.94-14.38c-2.23-4.51-6.07-7.89-10.84-9.5
		c-4.76-1.62-9.87-1.28-14.38,0.94c-4.51,2.23-7.89,6.07-9.5,10.84c-1.62,4.76-1.28,9.87,0.94,14.38c3.27,6.64,9.97,10.5,16.92,10.5
		c2.14,0,4.3-0.37,6.4-1.14l107.51,186.21H246.51V236.1l175.24-111.75L602.36,239.47z M484.54,435.92v-26.07h18v-12.99h-18v-26.08
		h20.92v-12.94h-34.05v91.03h34.05v-12.95H484.54z M433.79,383.77v-8.26c0-4.11,1.89-6.17,5.66-6.17h0.09
		c3.8,0.03,5.71,2.09,5.71,6.17v12.25h13.13v-12.25c0-12.74-6.29-19.12-18.88-19.12c-12.56,0-18.84,6.37-18.84,19.12v8.54
		c0,8.38,4.1,15.5,12.3,21.34c8.2,5.88,12.3,11.01,12.3,15.4v10.39c0,4.11-1.9,6.17-5.71,6.17c-3.84,0-5.75-2.06-5.75-6.17v-12.25
		h-13.13v12.25c0,12.74,6.29,19.13,18.88,19.16c12.56,0,18.84-6.39,18.84-19.16v-11.51c0-8.17-4.1-15.17-12.3-21.02
		C437.88,392.79,433.79,387.82,433.79,383.77 M409.15,341.7h34.06v-12.94h-20.93v-78.09h-13.13V341.7z M408.08,357.83h-13.13v73.35
		c0,4.11-1.92,6.17-5.75,6.17c-3.8,0-5.71-2.06-5.71-6.17v-73.35h-13.13v73.35c0,12.78,6.28,19.16,18.84,19.16
		c12.59-0.03,18.88-6.42,18.88-19.16V357.83z M365.31,341.7h34.06v-12.94h-20.93v-78.09h-13.13V341.7z M332.74,328.75v-26.07h18
		v-12.99h-18v-26.08h20.92v-12.94H319.6v91.03h34.06v-12.94h-20.92V328.75z M344.66,431.19c0,4.11-1.92,6.17-5.75,6.17
		c-3.8,0-5.71-2.06-5.71-6.17v-55.68c0-4.11,1.89-6.17,5.66-6.17h0.09c3.8,0.03,5.71,2.09,5.71,6.17V431.19z M357.79,375.51
		c0-12.74-6.29-19.12-18.88-19.12c-12.56,0-18.84,6.37-18.84,19.12v55.68c0,12.78,6.28,19.16,18.84,19.16
		c12.59-0.03,18.88-6.42,18.88-19.16V375.51z M293.91,322.58c0,4.11-1.9,6.17-5.71,6.17h-5.75v-26.07h4.13
		c1.82,0,3.08,0.14,3.76,0.42c2.38,0.93,3.57,2.85,3.57,5.75L293.91,322.58L293.91,322.58z M293.91,283.52
		c0,2.91-1.19,4.84-3.57,5.8c-0.68,0.25-1.93,0.37-3.76,0.37h-4.13v-26.08h5.75c3.81,0,5.71,2.07,5.71,6.22L293.91,283.52
		L293.91,283.52z M299.84,296.18c4.79-2.47,7.19-6.7,7.19-12.67v-13.69c0-12.74-5.83-19.12-17.49-19.12l-20.23-0.05v91.03h19.39
		c0.37-0.03,0.65-0.05,0.84-0.05c11.66,0,17.49-6.36,17.49-19.07v-13.73C307.04,302.88,304.64,298.66,299.84,296.18 M307.04,357.83
		h-13.13v39.02h-11.46v-39.02h-13.13v91.03h13.13v-39.02h11.46v39.02h13.13V357.83z"/>
</g>
</svg>
